<?xml version="1.0" encoding="utf-8"?>
<!-- Generator: Adobe Illustrator 17.0.0, SVG Export Plug-In . SVG Version: 6.00 Build 0)  -->
<svg version="1.2" baseProfile="tiny" id="Layer_1" xmlns="http://www.w3.org/2000/svg" xmlns:xlink="http://www.w3.org/1999/xlink"
	 x="0px" y="0px" width="175.747px" height="156.028px" viewBox="0 0 175.747 156.028" overflow="scroll" xml:space="preserve">
<g>
	<path fill="#FFFFFF" d="M140.182,63.118c0,0,0.927-1.897,2.201-5.369c1.263-3.463,2.908-8.513,3.882-14.719
		c0.137-0.773,0.225-1.567,0.32-2.375c0.111-0.807,0.168-1.632,0.226-2.47c0.034-0.437,0.069-0.877,0.104-1.321
		c0.054-0.449,0.049-0.838,0.157-1.352c0.089-0.489,0.167-0.997,0.309-1.458c0.118-0.476,0.262-0.949,0.446-1.413
		c1.342-3.765,4.499-7.149,8.714-8.757c2.104-0.787,4.501-1.117,6.912-0.675c2.407,0.402,4.779,1.708,6.459,3.599
		c1.721,1.873,2.771,4.198,3.365,6.511c0.259,1.025,0.518,2.052,0.778,3.079c0.255,1.028,0.52,2.07,0.747,3.15
		c0.454,2.151,0.87,4.467,0.704,6.964c-0.127,2.479-0.993,5.036-2.306,7.066c-1.297,2.065-2.94,3.701-4.605,5.123
		c-1.681,1.411-3.41,2.64-5.146,3.747c-3.476,2.207-6.95,4.006-10.265,5.634c-3.318,1.624-6.497,3.028-9.44,4.292
		c-1.419,0.631-3.059,1.224-3.903,1.792c-1.018,0.635-1.757,1.424-2.032,2.2c-0.291,0.77-0.188,1.527,0.169,2.163
		c0.359,0.634,0.953,1.111,1.563,1.37c1.242,0.555,2.453,0.334,3.203,0.109c0.382-0.127,0.675-0.242,0.866-0.344
		c0.194-0.092,0.294-0.14,0.294-0.14l1.352,2.408c0,0-0.136,0.072-0.401,0.212c-0.26,0.146-0.669,0.333-1.225,0.536
		c-1.089,0.362-2.973,0.838-5.229-0.04c-1.099-0.43-2.255-1.236-3.061-2.522c-0.813-1.261-1.149-3.116-0.564-4.802
		c0.556-1.7,1.831-3.007,3.22-3.952c0.339-0.246,0.762-0.47,1.134-0.687c0.357-0.175,0.614-0.318,1.064-0.524
		c0.686-0.321,1.387-0.65,2.104-0.986c2.86-1.352,5.941-2.848,9.118-4.547c3.172-1.699,6.477-3.569,9.631-5.768
		c3.117-2.186,6.212-4.765,8-7.795c0.903-1.507,1.356-3.099,1.435-4.839c0.104-1.734-0.2-3.651-0.591-5.646l-0.646-3.06
		c-0.236-1.041-0.432-2.14-0.633-3.113c-0.385-1.775-0.971-3.474-2.01-4.762c-1.008-1.298-2.369-2.274-3.975-2.699
		c-1.592-0.467-3.373-0.38-5.028,0.097c-3.345,0.955-6.109,3.536-7.396,6.567c-0.351,0.744-0.587,1.557-0.764,2.294
		c-0.111,0.347-0.149,0.843-0.224,1.256c-0.059,0.331-0.119,0.85-0.178,1.259c-0.115,0.869-0.228,1.722-0.395,2.549
		c-0.15,0.83-0.293,1.643-0.483,2.429c-1.402,6.316-3.387,11.306-4.88,14.725c-1.502,3.419-2.561,5.283-2.561,5.283L140.182,63.118z
		"/>
	<circle fill="#FFFFFF" cx="144.58" cy="80.727" r="2.503"/>
</g>
<path fill="#FFF200" stroke="#FFFFFF" stroke-width="3" stroke-miterlimit="10" d="M151.341,17.373
	c-3.54-3.43-17.18-14.37-63.21-14.37c-0.001,0-0.002,0-0.003,0s-0.002,0-0.003,0c-46.03,0-59.67,10.94-63.21,14.37
	c-0.06,1.35,0.16,3.57,2.05,4.79c2.83,1.84-1,39.67,22.83,60.17s31.5,12.83,31.5,25.17c0,12.33-3.33,5.33-3.33,11.66
	c0,6.34,2.16,1.17,2.16,8.67c0,16.09-9.96,15.73-17.55,17.12c-5.84,0.93-9.47,2.88-9.47,4.26c0,2.85,15.26,5.17,34.08,5.17
	c0.316,0,0.629-0.002,0.943-0.004c0.314,0.001,0.627,0.004,0.943,0.004c18.82,0,34.08-2.32,34.08-5.17c0-1.38-3.63-3.33-9.47-4.26
	c-7.59-1.39-17.55-1.03-17.55-17.12c0-7.5,2.16-2.33,2.16-8.67c0-6.33-3.33,0.67-3.33-11.66c0-12.34,7.67-4.67,31.5-25.17
	s20-58.33,22.83-60.17C151.181,20.943,151.401,18.723,151.341,17.373z"/>
<path fill="#ED1C24" d="M189.733,720.159c-0.354-0.187-0.711-0.369-1.067-0.554c-0.118,0.182-0.252,0.354-0.375,0.532
	c2.013,0.951,4.057,1.839,6.117,2.672C192.868,721.892,191.316,720.996,189.733,720.159z"/>
<path fill="none" stroke="#F1F2F2" stroke-miterlimit="10" d="M54.128,147.333"/>
<g>
	<path fill="#FFFFFF" d="M154.62,17.452c-1.983-4.141-7.495-6.855-11.381-8.621C126.39,1.172,106.278,0.556,88.128,0.5
		C70.024,0.444,50.526,1.412,33.62,8.566c-4.066,1.721-9.929,4.594-11.985,8.886c-1.385,2.893,2.925,5.431,4.317,2.524
		c0.455-0.949,0.53-0.884,1.59-1.9c2.261-2.168,5.174-3.645,7.997-4.928C51.524,5.883,70.949,5.553,88.128,5.5
		c17.117-0.053,35.958,0.602,51.984,7.383c3.492,1.478,8.877,4.349,10.191,7.092C151.695,22.883,156.005,20.345,154.62,17.452
		L154.62,17.452z"/>
</g>
<g>
	<path fill="#FFFFFF" d="M35.309,63.394c0,0-1.059-1.864-2.561-5.283c-1.493-3.419-3.477-8.409-4.88-14.725
		c-0.19-0.786-0.333-1.6-0.483-2.429c-0.166-0.827-0.279-1.68-0.395-2.549c-0.059-0.41-0.12-0.928-0.178-1.259
		c-0.075-0.413-0.113-0.909-0.224-1.256c-0.177-0.736-0.413-1.55-0.764-2.294c-1.287-3.031-4.051-5.612-7.396-6.567
		c-1.655-0.476-3.436-0.563-5.028-0.097c-1.607,0.425-2.968,1.401-3.975,2.699c-1.039,1.288-1.625,2.987-2.01,4.762
		c-0.201,0.973-0.397,2.072-0.633,3.113l-0.646,3.06c-0.391,1.996-0.695,3.912-0.591,5.646c0.079,1.74,0.532,3.331,1.435,4.839
		c1.788,3.031,4.883,5.609,8,7.795c3.153,2.2,6.459,4.07,9.631,5.768c3.177,1.7,6.258,3.196,9.118,4.547
		c0.716,0.336,1.418,0.665,2.104,0.986c0.451,0.206,0.707,0.349,1.064,0.524c0.373,0.217,0.795,0.441,1.134,0.687
		c1.389,0.945,2.664,2.252,3.22,3.952c0.585,1.686,0.249,3.542-0.564,4.802c-0.806,1.287-1.962,2.093-3.061,2.522
		c-2.255,0.878-4.14,0.401-5.229,0.04c-0.555-0.203-0.965-0.39-1.225-0.536c-0.264-0.14-0.401-0.212-0.401-0.212l1.352-2.408
		c0,0,0.1,0.048,0.294,0.14c0.191,0.101,0.484,0.217,0.866,0.344c0.751,0.225,1.962,0.445,3.203-0.109
		c0.611-0.26,1.204-0.737,1.563-1.37c0.357-0.636,0.461-1.393,0.169-2.163c-0.275-0.776-1.014-1.564-2.032-2.2
		c-0.844-0.568-2.484-1.161-3.903-1.792c-2.944-1.264-6.123-2.668-9.44-4.292c-3.316-1.629-6.789-3.427-10.265-5.634
		c-1.736-1.107-3.465-2.336-5.145-3.747c-1.665-1.422-3.308-3.058-4.605-5.123c-1.313-2.029-2.179-4.586-2.306-7.066
		c-0.166-2.497,0.25-4.813,0.704-6.964c0.227-1.08,0.492-2.122,0.747-3.15c0.26-1.028,0.519-2.055,0.778-3.079
		c0.594-2.314,1.643-4.638,3.365-6.511c1.68-1.891,4.053-3.197,6.459-3.599c2.411-0.441,4.809-0.112,6.912,0.675
		c4.214,1.608,7.372,4.992,8.714,8.757c0.184,0.465,0.328,0.937,0.446,1.413c0.142,0.461,0.22,0.969,0.309,1.458
		c0.108,0.514,0.103,0.903,0.157,1.352c0.035,0.444,0.07,0.884,0.104,1.321c0.059,0.838,0.115,1.664,0.226,2.47
		c0.095,0.808,0.183,1.603,0.32,2.375c0.974,6.206,2.62,11.256,3.882,14.719c1.274,3.472,2.201,5.369,2.201,5.369L35.309,63.394z"/>
	<circle fill="#FFFFFF" cx="31.449" cy="80.727" r="2.503"/>
</g>
</svg>
